<?xml version="1.0" encoding="UTF-8" standalone="no"?><svg width="358" height="256" viewBox="0 0 358 256" xmlns="http://www.w3.org/2000/svg" xmlns:xlink="http://www.w3.org/1999/xlink"><svg width="128" height="128" viewBox="0 0 128 128" id="feature_build"><title>feature_build</title><desc>Created with Sketch.</desc><g fill="none" fill-rule="evenodd"><g><g transform="translate(16)"><g><path d="M95.1 70.7c0 26.1-21.1 45.4-47.2 45.4S.7 96.8.7 70.7c0-26.1 21.1-47.2 47.2-47.2s47.2 21.1 47.2 47.2z" id="aShape" fill="#000"/><path d="M87.7 70.7c0 22-17.8 39.8-39.8 39.8-22 0-39.8-17.8-39.8-39.8 0-22 17.8-39.8 39.8-39.8 22 0 39.8 17.8 39.8 39.8z" id="aShape" fill="#fff"/><path d="M27.8 66c0 3.5-2.9 6.4-6.4 6.4-3.5 0-6.4-2.8-6.4-6.4 0-3.5 2.9-6.4 6.4-6.4 3.5 0 6.4 2.9 6.4 6.4z" id="aShape" fill="#1A171B"/><path d="M80.7 66c0 3.5-2.8 6.4-6.4 6.4-3.5 0-6.4-2.8-6.4-6.4 0-3.5 2.8-6.4 6.4-6.4 3.6 0 6.4 2.9 6.4 6.4z" id="aShape" fill="#1A171B"/><path d="M47.9 86.4c-10.7 0-16.6-.7-16.6-.7 0 7.2 6.8 11.6 16.5 11.6 9.9 0 16.7-4.5 16.7-11.6.1 0-5.8.7-16.6.7z" id="aShape" fill="#1A171B"/><path d="M48.5 4.1c-22 0-39.8 17.3-39.8 38.7h79.5c0-21.4-17.8-38.7-39.7-38.7z" id="aShape" stroke="#000" stroke-width="7"/><path d="M97 43.9c0 2.6-2.1 4.8-4.8 4.8H4.8c-2.6 0-4.8-2.1-4.8-4.8 0-2.6 2.1-4.8 4.8-4.8h87.4c2.6 0 4.8 2.1 4.8 4.8z" id="aShape" fill="#000"/><g transform="translate(5 69)" id="aShape" fill="#000"><path d="M.6 0S6 22.5 24.8 14.7c0 0-5.8 2.7-3.7 12.2 0 0-11.2 7.8-17.8-10.1C0 7.6.6 0 .6 0z"/><path d="M85.3 0s-5.4 22.5-24.2 14.7c0 0 5.8 2.7 3.7 12.2 0 0 11.2 7.8 17.8-10.1C85.9 7.6 85.3 0 85.3 0z"/></g><path d="M47.9 102.9c-1.4 0-2.7 0-3.9-.1-1.5 2.4-2.5 6.1-2.5 10.3 0 7.2 2.9 10.8 6.5 13 3.6-2.2 6.5-5.8 6.5-13 0-4.2-1-7.9-2.5-10.3-1.4 0-2.7.1-4.1.1z" id="aShape" fill="#000"/><path d="M88.1 40.8l.1-.1h-.1C86.4 20.8 69.3 5.2 48.5 5.2c-22 0-39.8 17.3-39.8 38.7h3.5l8.3 8.3h53.8l10-8.3h3.9c0-1.1 0-2.1-.1-3.1z" id="aShape" fill="#fff"/><path d="M74.4 55H20.6c-1.1 0-2.1-.4-2.8-1.2l-7.1-7.1h-2c-2.2 0-4-1.8-4-4C4.7 19.2 24.4 0 48.5 0 70.7 0 89.6 16.6 92 38v.1c.3.7.3 1.5.2 2.2.1.9.1 1.7.1 2.4 0 2.2-1.8 4-4 4h-2.4L77 54.1c-.8.6-1.7.9-2.6.9zm-52.2-8h50.7l8.9-7.4c.6-.5 1.4-.8 2.2-.9C81.9 21.4 66.6 8 48.5 8 30.1 8 15 21.5 13 38.8c.8.1 1.5.5 2.1 1.1l7.1 7.1z" id="aShape" fill="#000"/><g transform="translate(33 2)" fill="#000"><path d="M4.3 23.4c-1.9 0-3.5-1.6-3.5-3.5V4.4C.8 2.5 2.4.9 4.3.9s3.5 1.6 3.5 3.5v15.5c0 1.9-1.5 3.5-3.5 3.5z"/><path d="M26.6 23.4c-1.9 0-3.5-1.6-3.5-3.5V4.4c0-1.9 1.6-3.5 3.5-3.5s3.5 1.6 3.5 3.5v15.5c0 1.9-1.5 3.5-3.5 3.5z"/></g></g></g></g></g></svg><svg width="128" height="128" viewBox="0 0 128 128" id="feature_design" x="128"><title>feature_design</title><desc>Created with Sketch.</desc><g fill="none" fill-rule="evenodd"><g><g transform="translate(8 6)"><g><path d="M108 47.2c0 26.1-21.1 45.4-47.2 45.4S13.6 73.3 13.6 47.2C13.6 21.1 34.7 0 60.8 0c26 0 47.2 21.1 47.2 47.2z" id="bShape" fill="#000"/><path d="M100.5 47.2c0 22-17.8 39.8-39.8 39.8C38.8 87 21 69.2 21 47.2c0-22 17.8-39.8 39.7-39.8 22 0 39.8 17.8 39.8 39.8z" id="bShape" fill="#fff"/><path d="M34.2 36.1c3.5 0 6.4 2.8 6.4 6.4 0 3.5-2.9 6.4-6.4 6.4-3.5 0-6.4-2.8-6.4-6.4.1-3.5 2.9-6.4 6.4-6.4zm0-6c-6.8 0-12.4 5.5-12.4 12.4 0 6.8 5.5 12.4 12.4 12.4 6.8 0 12.4-5.5 12.4-12.4 0-6.8-5.5-12.4-12.4-12.4z" id="bShape" fill="#000"/><path d="M87.2 36.1c3.5 0 6.4 2.8 6.4 6.4 0 3.5-2.8 6.4-6.4 6.4-3.5 0-6.4-2.8-6.4-6.4 0-3.5 2.9-6.4 6.4-6.4zm0-6c-6.8 0-12.4 5.5-12.4 12.4 0 6.8 5.5 12.4 12.4 12.4 6.8 0 12.4-5.5 12.4-12.4-.1-6.8-5.6-12.4-12.4-12.4z" id="bShape" fill="#000"/><path d="M45.7 41l-6-3.6c.5-.9 5.5-8.6 21.1-8.6 15.7 0 20.4 7.8 20.8 8.7l-6.2 3.3c-.1-.1-3.2-5-14.7-5s-14.9 5-15 5.2z" id="bShape" fill="#000"/><path d="M24.2 38.7s-2.6-3.5-7.2-4.5l1.6-6.8c7.2 1.7 11.1 7 11.3 7.2l-5.7 4.1z" id="bShape" fill="#000"/><path d="M96.6 38.7l-5.7-4.1c.2-.2 4.1-5.6 11.3-7.2l1.6 6.8c-4.6 1-7.2 4.4-7.2 4.5z" id="bShape" fill="#000"/><g transform="translate(0 1)" id="bShape" fill="#000"><path d="M28.9 12.5l-8.7-8.9c-.4-.4-1-.6-1.6-.4-.5.2-.9.7-1 1.2-.3 2.6-1.2 4.8-2.8 6.6-2 2.3-4.6 4.3-7.7 5.9-.4.2-.7.6-.8 1.1-.1.5.1 1 .5 1.3L19.2 31c.3.3.7.4 1 .4.2 0 .3 0 .5-.1.5-.2.9-.6 1-1.2.6-3.9 5.6-12.8 7.4-15.9.4-.5.3-1.2-.2-1.7z"/><path d="M9.3 7.7c1-1.3 1.8-2.8 2.3-4.3.1-.4.1-.9-.2-1.3-.2-.4-.6-.6-1.1-.7L2.6.4c-.5-.1-1 .1-1.3.5C1 1.5.9 2 1.1 2.5l2.5 7.4c.1.4.5.8.9.9.2.1.4.1.6.1.2 0 .5-.1.7-.2 1.3-.7 2.5-1.7 3.5-3z"/></g><path d="M101.6 59.7l.9-2.3c-5.8 0-10.7 3.1-12.1 7.1-2.2-1.4-5.1-2.3-8.2-2.3 0-5.2-5.6-9.4-12.6-9.4-3.5 0-6.6 1.1-8.9 2.8-2.3-1.7-5.4-2.8-8.9-2.8-6.9 0-12.6 4.2-12.6 9.4-3.1 0-6 .9-8.2 2.3-1.4-4.1-6.2-7.1-12.1-7.1l.9 2.3L31.7 84l15.6 11.3 14.9 1.2 12.2-5.8 14.3-7 12.9-24z" id="bShape" fill="#000"/><path d="M60.8 62.9c-10.7 0-16.6-.7-16.6-.7 0 7.2 6.8 11.6 16.5 11.6 9.9 0 16.7-4.5 16.7-11.6 0 0-5.9.7-16.6.7z" id="bShape" fill="#fff"/><ellipse id="bOval" fill="#000" cx="60.6" cy="103.8" rx="10.8" ry="11.9"/><path d="M24.5 70.7c-.1.4-3.7-12.6-5.6-19.4-1.1-.5-2.3-.6-3.3-.3-4 1.2-5.5 8.2-3.2 15.6C14.5 74 19.6 79 23.6 77.8c3.5-1.1 5.1-6.5 3.9-12.9-1.6 3-2.9 5.6-3 5.8z" id="bShape" fill="#000"/><path d="M99.8 70.7c.1.4 3.7-12.6 5.6-19.4 1.1-.5 2.3-.6 3.3-.3 4 1.2 5.5 8.2 3.2 15.6-2.2 7.4-7.3 12.4-11.3 11.2-3.5-1.1-5.1-6.5-3.9-12.9 1.7 3 3 5.6 3.1 5.8z" fill="#000"/><circle id="bOval" fill="#000" cx="29.5" cy="82" r="13.3"/><circle id="bOval" fill="#000" cx="44.3" cy="97.8" r="13.3"/><circle id="bOval" fill="#000" cx="92.9" cy="82" r="13.3"/><circle fill="#000" cx="78.1" cy="97.8" r="13.3"/></g></g></g></g></svg><svg width="128" height="128" viewBox="0 0 128 128" id="feature_service" y="128"><title>feature_service</title><desc>Created with Sketch.</desc><g fill="none" fill-rule="evenodd"><g><g transform="translate(4 10)"><g><path d="M120 17.8c-.1-.7-.5-1.4-1.2-1.7-.7-.3-1.5-.2-2 .3l-9.3 7.6-8.5-1.8-1.7-8.6 7.7-9.3c.5-.6.6-1.4.3-2-.3-.7-.9-1.2-1.7-1.2-1.3-.1-2.3-.2-3.2-.2-4.2 0-7.2 1.2-10.1 4.1-4.5 4.4-5.6 10-3.3 15.8L66.5 41.3c-.8.8-.8 2 0 2.8L77 54.6c.4.4.9.6 1.4.6.5 0 1-.2 1.4-.6l20.4-20.4c1.9.8 3.9 1.2 5.7 1.2 3.7 0 7.1-1.5 10-4.3 4.4-4.4 4.4-8.8 4.1-13.3z" id="cShape" fill="#000"/><ellipse fill="#000" cx="47.1" cy="56.6" rx="45.9" ry="51.1"/><path d="M94.4 51.6C94.4 77.7 73.2 97 47.2 97 21.1 97 0 77.7 0 51.6 0 25.5 21.1 4.4 47.2 4.4c26 0 47.2 21.1 47.2 47.2z" id="cShape" fill="#000"/><path d="M87 51.6c0 22-17.8 39.8-39.8 39.8-22 0-39.8-17.8-39.8-39.8 0-22 17.8-39.8 39.8-39.8 22 0 39.8 17.8 39.8 39.8z" id="cShape" fill="#fff"/><path d="M27 46.9c0 3.5-2.9 6.4-6.4 6.4-3.5 0-6.4-2.8-6.4-6.4 0-3.5 2.9-6.4 6.4-6.4 3.6 0 6.4 2.9 6.4 6.4z" id="cShape" fill="#000"/><path d="M80 46.9c0 3.5-2.8 6.4-6.4 6.4-3.5 0-6.4-2.8-6.4-6.4 0-3.5 2.8-6.4 6.4-6.4 3.5 0 6.4 2.9 6.4 6.4z" id="cShape" fill="#000"/><g transform="translate(12 45)" id="cShape"><path d="M26.9 12.9c0 1.1-.9 1.9-1.9 1.9H2.3c-1.1 0-1.9-.9-1.9-1.9V2.5C.4 1.4 1.3.6 2.3.6H25c1.1 0 1.9.9 1.9 1.9v10.4z" fill="#fff"/><path d="M21.9 5.5v4.3H5.3V5.5h16.6zm3.1-5H2.3C1.2.5.4 1.4.4 2.4v10.4c0 1.1.9 1.9 1.9 1.9H25c1.1 0 1.9-.9 1.9-1.9V2.5c0-1.1-.8-2-1.9-2z" fill="#000"/><g transform="translate(43)"><path d="M27.1 12.9c0 1.1-.9 1.9-1.9 1.9H2.4c-1.1 0-1.9-.9-1.9-1.9V2.5C.5 1.4 1.4.6 2.4.6h22.7c1.1 0 1.9.9 1.9 1.9v10.4h.1z" fill="#fff"/><path d="M22.1 5.5v4.3H5.4V5.5h16.7zm3-5H2.4C1.3.5.5 1.4.5 2.4v10.4c0 1.1.9 1.9 1.9 1.9h22.7c1.1 0 1.9-.9 1.9-1.9V2.5c.1-1.1-.8-2-1.9-2z" fill="#000"/></g></g><path d="M38.8 54.7l.1-.1-4.6-3.9c.5-.6 3.7-3.8 12.9-3.8s12.3 3.3 12.8 3.9l-4.7 3.7s0 .1.1.1c0 0-1.9-1.8-8.2-1.8-6.4.1-8.4 1.9-8.4 1.9z" id="cShape" fill="#000"/><path d="M82.2 51.3l.1-.1-4.6-3.9c.5-.6 3.7-3.8 12.9-3.8v6c-6.4-.1-8.4 1.8-8.4 1.8z" id="cShape" fill="#000"/><path d="M12.9 51.3s-2-1.8-8.4-1.8v-6c9.2 0 12.3 3.2 12.9 3.8l-4.6 3.9c0-.1.1 0 .1.1z" id="cShape" fill="#000"/><g transform="translate(4 59)" id="cShape" fill="#000"><path d="M82.2 13.4c-.3-.3-.7-.6-1-.8C83.4 7.1 85.8.8 85.8.8S79 10 72.8 10c-4.1 0-6.9-3.2-8.4-5.4-.5-1.2-21.3-2.9-21.3-2.9S22.4 3.4 21.8 4.6c-1.4 2.2-4.3 5.4-8.4 5.4C7.2 10 .4.8.4.8S3 7.1 5.2 12.6c-.3.2-.7.5-1 .8 1 1.5 2 3 3 4.3.7 1.8 1.1 3 1.2 3.2 0-.1.5-.1 1.4-.1 1.6 1.9 2.8 3.1 2.8 3.1s13.8 11.3 26.3 11.8c1.8.1 3.2.1 4.4.1 1.1 0 2.6 0 4.4-.1C60.2 35.2 74 23.9 74 23.9s1.2-1.2 2.8-3.1c.8 0 1.3 0 1.4.1 0-.2.5-1.4 1.2-3.2.8-1.3 1.8-2.8 2.8-4.3zm-39.1 5.8c-9.7 0-16.5-4.4-16.5-11.6 0 0 5.9.7 16.6.7 10.7 0 16.6-.7 16.6-.7 0 7.1-6.8 11.6-16.7 11.6z"/><path d="M78.1 20.8s0 .1 0 0z"/><path d="M8.3 20.8c0 .1 0 0 0 0z"/></g><path d="M18.8 34.2L26.4 15 8 33.3l10.8.9z" id="cShape" fill="#000"/><path d="M76.3 34.2L68.8 15l18.3 18.3-10.8.9z" id="cShape" fill="#000"/><path d="M54.8 18.1c0 2.5-3.1 4.5-6.9 4.5-3.8 0-6.9-2-6.9-4.5V9.7c0-2.5 3.1-4.5 6.9-4.5 3.8 0 6.9 2 6.9 4.5v8.4z" fill="#000"/></g></g></g></g></svg><svg width="102" height="128" viewBox="0 0 102 128" id="logo" x="128" y="128"><title>Slice 1</title><desc>Created with Sketch.</desc><g fill="none" fill-rule="evenodd"><g><g><path d="M50.883 21.607c-20.205 0-43.73 10.02-43.73 30.102 0 34.524 25.557 64.35 43.73 76.25 18.29-11.82 43.73-41.726 43.73-76.25 0-20.043-23.526-30.103-43.73-30.103z" id="dShape" fill="#000"/><path d="M101.844 51.004c0 28.184-22.784 49.047-50.922 49.047C22.784 100.05 0 79.19 0 51.005 0 22.82 22.784 0 50.922 0c28.138 0 50.922 22.82 50.922 51.004z" id="dShape" fill="#000"/><path d="M93.87 51.004c0 23.76-19.226 43.02-42.948 43.02s-42.95-19.26-42.95-43.02S27.2 7.984 50.922 7.984c23.722.04 42.95 19.26 42.95 43.02z" id="dShape" fill="#fff"/><path d="M89.455 78.796c.04-.274.078-.548.078-.822h-.117C88.283 60.908 69.602 57.54 50.922 57.54c-18.72 0-37.36 3.368-38.533 20.434h-.12c0 .274.04.548.04.822 0 .274-.04.548-.04.822h.12c1.17 17.067 40.447 18.437 38.532 18.437-1.915 0 37.36-1.37 38.494-18.437h.117c-.04-.274-.078-.548-.078-.822z" id="dShape" fill="#000"/><path d="M0 51.004c0 38.713 20.674 57.307 20.674 57.307.04-.078 9.066-9.276 9.692-30.805C30.99 57.737 0 51.005 0 51.005z" id="dShape" fill="#000"/><path d="M101.844 51.004c0 38.713-20.518 57.307-20.518 57.307-.04-.078-9.066-9.276-9.692-30.805-.586-19.768 30.21-26.5 30.21-26.5z" id="dShape" fill="#000"/><path d="M29.193 45.916c0 3.797-3.087 6.85-6.878 6.85-3.79 0-6.878-3.093-6.878-6.85 0-3.797 3.087-6.89 6.878-6.89 3.79.04 6.878 3.093 6.878 6.89z" id="dShape" fill="#000"/><path d="M86.33 45.916c0 3.797-3.09 6.85-6.88 6.85s-6.84-3.093-6.84-6.85c0-3.797 3.05-6.89 6.84-6.89 3.79.04 6.88 3.093 6.88 6.89z" id="dShape" fill="#000"/><path d="M41.425 2.857L39.08 27.48h6.488l-2.384 16.83 19.5-20.745h-8.01l9.77-20.708h-23.02z" id="dShape" fill="#000"/><path d="M50.883 69.05c-11.568 0-17.938-.744-17.938-.744 0 7.79 7.386 12.487 17.82 12.487 10.71 0 18.056-4.854 18.056-12.487.04 0-6.37.744-17.937.744z" fill="#fff"/></g></g></g></svg><svg width="102" height="128" viewBox="0 0 102 128" id="logo~hover" x="256"><title>logo~hover</title><desc>Created with Sketch.</desc><g fill="none" fill-rule="evenodd"><g><path d="M50.96 21.605c-20.235 0-43.797 10.02-43.797 30.1 0 34.52 25.598 64.345 43.798 76.245 18.32-11.82 43.8-41.723 43.8-76.245 0-20.04-23.563-30.1-43.8-30.1z" fill="#000"/><path d="M102 51c0 28.182-22.818 49.043-51 49.043-28.18 0-51-20.86-51-49.043C0 22.82 22.82 0 51 0c28.182 0 51 22.82 51 51z" fill="#000"/><path d="M94.016 51c0 23.758-19.258 43.016-43.016 43.016S7.985 74.758 7.985 51 27.242 7.985 51 7.985C74.758 8.025 94.016 27.242 94.016 51z" fill="#fff"/><path d="M89.592 78.79c.04-.274.08-.548.08-.822h-.12C88.42 60.902 69.71 57.538 51 57.538c-18.748 0-37.418 3.365-38.592 20.43h-.118c0 .274.04.548.04.82 0 .275-.04.55-.04.823h.118C13.582 96.678 52.918 98.048 51 98.048c-1.918 0 37.418-1.37 38.553-18.436h.118c-.038-.272-.078-.547-.078-.82z" fill="#000"/><path d="M0 51c0 38.71 20.705 57.302 20.705 57.302.04-.08 9.08-9.276 9.707-30.804C31.04 57.732 0 51 0 51z" fill="#000"/><path d="M102 51c0 38.71-20.55 57.302-20.55 57.302-.038-.08-9.08-9.276-9.706-30.804C71.157 57.732 102 51 102 51z" fill="#000"/><path d="M29.238 45.912c0 3.797-3.092 6.85-6.89 6.85-3.795 0-6.888-3.092-6.888-6.85 0-3.796 3.092-6.89 6.89-6.89 3.796.04 6.888 3.093 6.888 6.89z" fill="#000"/><path d="M41.49 2.857l-2.35 24.62h6.498l-2.388 16.83 19.53-20.745H54.76l9.785-20.705H41.49z" fill="#000"/><path d="M50.96 69.044c-11.584 0-17.964-.744-17.964-.744 0 7.79 7.397 12.485 17.848 12.485 10.725 0 18.083-4.853 18.083-12.485.038 0-6.38.744-17.966.744z" fill="#fff"/><path d="M70.922 50.256c-.39 0-.782-.078-1.135-.274-.704-.392-1.174-1.135-1.213-1.957 0-.235-.156-5.675 5.637-8.533 1.175-.587 2.583-.078 3.132 1.057.587 1.173.078 2.582-1.057 3.13-.156.078-.313.157-.432.235 2.7-.352 6.067-.078 9.473 1.84 1.135.626 1.526 2.074.9 3.21-.627 1.134-2.074 1.525-3.21.9-5.362-3.015-10.685-.04-10.92.117-.352.157-.782.274-1.174.274z" fill="#000"/></g></g></svg></svg>